<svg width="30" height="31" viewBox="0 0 30 31" fill="none" xmlns="http://www.w3.org/2000/svg">
<path fill-rule="evenodd" clip-rule="evenodd" d="M7.1573 3.06355C9.11885 1.10199 11.7793 0 14.5534 0C17.3274 0 19.9879 1.10199 21.9494 3.06355C22.9022 4.01636 23.6522 5.13407 24.1716 6.34961H21.9475C21.5692 5.66904 21.0956 5.03814 20.5352 4.47776C18.9487 2.89128 16.797 2 14.5534 2C12.3097 2 10.158 2.89128 8.57151 4.47776C6.98503 6.06424 6.09375 8.21597 6.09375 10.4596C6.09375 12.7032 6.98503 14.855 8.57151 16.4414C10.158 18.0279 12.3097 18.9192 14.5534 18.9192C16.797 18.9192 18.9487 18.0279 20.5352 16.4414C22.1217 14.855 23.013 12.7032 23.013 10.4596V10.4591H25.013V10.4596C25.013 12.1116 24.6221 13.7234 23.8917 15.1712L28.9741 23.9742C29.1585 24.2936 29.1521 24.6886 28.9575 25.0018C28.763 25.3151 28.4117 25.4959 28.0437 25.4721L23.0365 25.1493L20.8125 29.6487C20.6491 29.9793 20.3169 30.1932 19.9483 30.2051C19.5796 30.217 19.2344 30.025 19.05 29.7055L14.554 21.9168L10.058 29.704C9.87364 30.0234 9.52842 30.2154 9.15981 30.2035C8.7912 30.1916 8.45906 29.9778 8.2956 29.6472L6.07176 25.1495L1.06462 25.4737C0.696565 25.4975 0.345268 25.3168 0.150612 25.0036C-0.0440447 24.6903 -0.0504535 24.2953 0.133937 23.9759L5.21568 15.1725C4.48481 13.7243 4.09375 12.1121 4.09375 10.4596C4.09375 7.68554 5.19574 5.0251 7.1573 3.06355ZM6.43701 17.0572L2.80041 23.3571L6.60798 23.1105C7.01094 23.0844 7.39005 23.3033 7.56902 23.6652L9.26026 27.0858L12.8967 20.7872C10.7365 20.4407 8.724 19.4224 7.1573 17.8557C6.90252 17.6009 6.66225 17.3343 6.43701 17.0572ZM16.2111 20.787L19.8477 27.087L21.539 23.6653C21.7179 23.3034 22.0969 23.0845 22.4998 23.1105L26.3078 23.3561L22.6706 17.0562C22.4451 17.3336 22.2045 17.6006 21.9494 17.8557C20.383 19.4221 18.3708 20.4404 16.2111 20.787Z" fill="url(#paint0_linear_2177_13)"/>
<defs>
<linearGradient id="paint0_linear_2177_13" x1="14.554" y1="0" x2="26.77" y2="30.2056" gradientUnits="userSpaceOnUse">
<stop stop-color="#FFBD13"/>
<stop offset="0.27" stop-color="#FFFAED"/>
<stop offset="0.531285" stop-color="#FFE382"/>
<stop offset="0.735" stop-color="#FFEED3"/>
<stop offset="1" stop-color="#FF7A00"/>
</linearGradient>
</defs>
</svg>
