<svg version="1.2" xmlns="http://www.w3.org/2000/svg" viewBox="0 0 64 64" width="64" height="64">
	<title>certificate_17793687</title>
	<style>
		.s0 { fill: #ffffff } 
	</style>
	<path class="s0" d="m46.9 60h-42.9v-42h14v-14h28.9v7.5h2v-9.5h-32.3l-14.6 14.6v45.4h46.9v-11.7h-2zm-41.5-43.9l10.6-10.7v10.7z"/>
	<path class="s0" d="m39.3 6.2h-16.7v7.6h16.7zm-2 5.6h-12.7v-3.6h12.7z"/>
	<path class="s0" d="m9.8 24.1h22.3v2h-22.3z"/>
	<path class="s0" d="m9.8 31h22.3v2h-22.3z"/>
	<path class="s0" d="m9.8 37.9h22.3v2h-22.3z"/>
	<path class="s0" d="m9.8 44.9h22.3v2h-22.3z"/>
	<path class="s0" d="m9.8 51.8h12.3v2h-12.3z"/>
	<path class="s0" d="m59.5 23.1v-4.6l-4.4-1.5-2.8-3.8-4.4 1.5-4.4-1.5-2.8 3.8-4.4 1.5v4.6l-2.7 3.8 2.7 3.7v4.7l4.4 1.4v14.7l7.2-4.6 7.2 4.6v-14.7l4.4-1.4v-4.7l2.7-3.7c0 0-2.7-3.8-2.7-3.8zm-11.6 21.3l-5.2 3.3v-8.3l0.8 1.1 4.4-1.4 4.4 1.4 0.8-1.1v8.3zm9.6-14.3v3.8l-3.6 1.2-2.3 3.1-3.7-1.2-3.6 1.2-2.3-3.1-3.7-1.2v-3.8l-2.2-3.2 2.2-3.1v-3.8l3.7-1.2 2.3-3.1 3.6 1.1 3.7-1.1 2.3 3.1 3.6 1.2v3.8l2.3 3.1z"/>
	<path class="s0" d="m47.9 18.9c-4.4 0-8 3.6-8 8 0 4.4 3.6 8 8 8 4.4 0 8-3.6 8-8 0-4.4-3.6-8-8-8zm0 14c-3.3 0-6-2.7-6-6 0-3.3 2.7-6 6-6 3.3 0 6 2.7 6 6 0 3.3-2.7 6-6 6z"/>
</svg>