<svg xmlns="http://www.w3.org/2000/svg" viewBox="0 0 101 60"><defs><style>.cls-1{fill:#43af50;}.cls-2{fill:#fff915;}.cls-3{fill:#39acc6;}.cls-4{fill:#fff;}</style></defs><title>brazil</title><g id="Layer_2" data-name="Layer 2"><g id="Layer_1-2" data-name="Layer 1"><rect class="cls-1" width="101" height="60"/><polygon class="cls-2" points="9.55 29.82 45.83 6.89 82.59 29.44 46.31 52.28 9.55 29.82"/><path class="cls-3" d="M61.57,29.47A15.78,15.78,0,0,1,60.1,36.1a15.69,15.69,0,0,1-29.91-6.63,15.55,15.55,0,0,1,.63-4.4,15.69,15.69,0,0,1,30.75,4.4"/><path class="cls-4" d="M61.24,32.66A15.27,15.27,0,0,1,60.1,36.1s0,0-.06-.06c-3.32-4-8.37-7.24-14.3-9.23C40.26,25,32,25.05,30.82,25.07a15.59,15.59,0,0,1,1.39-3.34s5.28-.59,14.29,1.76a28.73,28.73,0,0,1,14.74,9.17"/><path class="cls-1" d="M33.39,22.59a1,1,0,0,0-.93,1.11.94.94,0,0,0,.95,1,1,1,0,0,0,.94-1.11,1,1,0,0,0-1-1m0,1.92c-.42,0-.66-.39-.67-.82s.19-.87.63-.88.66.42.68.82-.22.86-.64.88"/><path class="cls-1" d="M35.89,24.11a.5.5,0,0,0-.3-.41h0a.53.53,0,0,0,.39-.53.5.5,0,0,0-.16-.39.82.82,0,0,0-.59-.18,2.57,2.57,0,0,0-.51,0l0,2H35v-.89h.25c.24,0,.35.11.41.4a2.42,2.42,0,0,0,.13.5H36a2.61,2.61,0,0,1-.15-.58m-.65-.53H35v-.75l.26,0c.28,0,.47.13.47.39s-.18.39-.47.39"/><path class="cls-1" d="M37.81,22.94a1.22,1.22,0,0,0-.82-.3,5.17,5.17,0,0,0-.57,0l-.1,2,.48,0a1.26,1.26,0,0,0,.93-.26,1.13,1.13,0,0,0,.34-.78,1,1,0,0,0-.26-.76m-.94,1.59a1.7,1.7,0,0,1-.28,0l.08-1.62a1.57,1.57,0,0,1,.32,0,.73.73,0,0,1,.8.83.8.8,0,0,1-.92.84"/><polygon class="cls-1" points="39.62 23.08 39.65 22.86 38.53 22.75 38.34 24.8 39.49 24.92 39.51 24.69 38.62 24.61 38.69 23.87 39.49 23.94 39.5 23.72 38.71 23.65 38.77 23 39.62 23.08"/><path class="cls-1" d="M41.68,23.12l-.51.94c-.12.25-.23.46-.31.65h0c0-.22-.06-.45-.11-.71l-.2-1-.34,0-.43,2L40,25l.18-.88c.06-.3.12-.64.17-.9,0,.26.07.53.12.83l.2,1,.19,0,.51-.94c.14-.27.27-.51.37-.74h0c-.05.25-.07.6-.1.89l-.07.91.25,0L42,23.17Z"/><path class="cls-1" d="M45.27,24.84,45,24.78a1.51,1.51,0,0,1-.34.53c-.09-.17-.24-.44-.35-.67h0c.36-.08.52-.22.58-.42a.45.45,0,0,0-.34-.55A.5.5,0,0,0,44,24a.62.62,0,0,0,.06.46v0a.69.69,0,0,0-.55.49.6.6,0,0,0,.49.71.88.88,0,0,0,.65-.09,1.63,1.63,0,0,0,.13.24l.31.09a4.31,4.31,0,0,0-.25-.44,1.44,1.44,0,0,0,.47-.67m-1.07-.77a.27.27,0,0,1,.33-.23.24.24,0,0,1,.16.32c0,.16-.2.24-.43.31a.61.61,0,0,1-.06-.4m-.15,1.45a.4.4,0,0,1-.31-.5.47.47,0,0,1,.36-.34c.16.31.32.61.41.76a.55.55,0,0,1-.46.08"/><path class="cls-1" d="M48.12,24.92a.92.92,0,0,0-.5-.35,4.21,4.21,0,0,0-.49-.12l-.65,1.93.26.09.25-.78a.7.7,0,0,0,.2.08.93.93,0,0,0,.68,0,.64.64,0,0,0,.28-.37.55.55,0,0,0,0-.47m-.22.4a.45.45,0,0,1-.63.26,1.39,1.39,0,0,1-.21-.1l.26-.76a1.35,1.35,0,0,1,.24.06c.28.09.42.28.34.54"/><path class="cls-1" d="M49.71,25.51a.8.8,0,0,0-.48-.37,3.23,3.23,0,0,0-.5-.14L48,26.91l.26.09.31-.84.24.09c.22.1.29.24.24.52a4.1,4.1,0,0,0,0,.51l.27.1a4.79,4.79,0,0,1,0-.58.5.5,0,0,0-.14-.5h0a.53.53,0,0,0,.54-.36.44.44,0,0,0,0-.42m-.23.37a.42.42,0,0,1-.58.19L48.65,26l.26-.72c.05,0,.14,0,.25.09.27.09.41.27.32.53"/><path class="cls-1" d="M51.15,25.91a1,1,0,0,0-1.32.6.93.93,0,0,0,.42,1.33,1,1,0,0,0,1.31-.6.92.92,0,0,0-.41-1.33m.16,1.23c-.2.43-.58.68-1,.51a.73.73,0,0,1-.27-1c.19-.41.56-.7,1-.51a.75.75,0,0,1,.26,1"/><path class="cls-1" d="M53.29,27a1,1,0,0,0-1.49.39,1,1,0,0,0-.12.8,1,1,0,0,0,.54.62,1.69,1.69,0,0,0,.61.2l.48-.86-.6-.34-.1.2.37.19-.3.55a.78.78,0,0,1-.33-.12.76.76,0,0,1-.3-1.12.77.77,0,0,1,1.13-.33,1.1,1.1,0,0,1,.35.3l.16-.16a1,1,0,0,0-.4-.32"/><path class="cls-1" d="M55,28.73a.52.52,0,0,0,.08-.41.81.81,0,0,0-.41-.48,3.35,3.35,0,0,0-.45-.24L53.1,29.31l.22.14.5-.74.2.14c.2.14.23.28.13.56a2.39,2.39,0,0,0-.15.48l.22.15a3.22,3.22,0,0,1,.19-.56c.06-.21.08-.38,0-.51h0a.55.55,0,0,0,.62-.23m-.85-.05-.23-.15.42-.63a1.57,1.57,0,0,1,.24.13c.23.16.32.37.18.59a.41.41,0,0,1-.61.06"/><polygon class="cls-1" points="56.43 29.42 56.57 29.24 55.69 28.57 54.44 30.21 55.36 30.91 55.49 30.74 54.79 30.19 55.23 29.59 55.87 30.09 56 29.91 55.36 29.42 55.77 28.9 56.43 29.42"/><path class="cls-1" d="M57.44,29.91a.6.6,0,0,0-.88,0,.65.65,0,0,0,0,.79c.15.27.17.43,0,.58s-.34.16-.57,0a1.11,1.11,0,0,1-.27-.42l-.2.13a1,1,0,0,0,.33.43.6.6,0,0,0,.93,0,.63.63,0,0,0,0-.8c-.13-.27-.17-.42,0-.57a.36.36,0,0,1,.51,0,1,1,0,0,1,.23.33l.19-.11a.84.84,0,0,0-.27-.38"/><path class="cls-1" d="M58.61,31a.61.61,0,0,0-.88,0c-.19.22-.16.48,0,.8s.15.42,0,.57a.39.39,0,0,1-.57,0,.92.92,0,0,1-.25-.43l-.21.11a1.13,1.13,0,0,0,.3.47c.36.32.73.28.93,0s.2-.46,0-.8-.16-.43,0-.57a.34.34,0,0,1,.5,0,.85.85,0,0,1,.23.33l.2-.1a1.12,1.12,0,0,0-.27-.4"/><path class="cls-1" d="M59.9,32.19a1,1,0,0,0-1.44.1,1,1,0,0,0-.07,1.41,1,1,0,0,0,1.45-.12.93.93,0,0,0,.06-1.39m-.26,1.21c-.34.33-.78.45-1.09.14a.72.72,0,0,1,.12-1,.73.73,0,0,1,1.07-.15.74.74,0,0,1-.1,1.06"/><path class="cls-4" d="M55.62,35.3a.19.19,0,0,1-.19.19.2.2,0,0,1-.2-.19.19.19,0,0,1,.2-.19.18.18,0,0,1,.19.19"/><path class="cls-4" d="M54.23,35.39a.19.19,0,0,1-.2.19.19.19,0,0,1-.19-.19A.2.2,0,0,1,54,35.2a.2.2,0,0,1,.2.19"/><path class="cls-4" d="M54.08,36.38a.16.16,0,0,1-.16.16.17.17,0,0,1-.17-.16.17.17,0,0,1,.17-.17.16.16,0,0,1,.16.17"/><path class="cls-4" d="M53.82,37a.16.16,0,0,1-.16.16.16.16,0,0,1-.15-.16.15.15,0,0,1,.15-.15.16.16,0,0,1,.16.15"/><path class="cls-4" d="M53.19,37.28a.16.16,0,1,1-.32,0,.16.16,0,1,1,.32,0"/><path class="cls-4" d="M52.3,37.51a.16.16,0,1,1-.32,0,.16.16,0,0,1,.32,0"/><path class="cls-4" d="M53,38.61a.19.19,0,0,1-.19.19.2.2,0,1,1,0-.39.19.19,0,0,1,.19.2"/><path class="cls-4" d="M53,39.52a.2.2,0,0,1-.19.19.2.2,0,0,1-.2-.19.19.19,0,0,1,.2-.19.19.19,0,0,1,.19.19"/><path class="cls-4" d="M49.76,37.53a.12.12,0,0,1-.12.13.13.13,0,0,1-.13-.13.12.12,0,0,1,.13-.12.12.12,0,0,1,.12.12"/><path class="cls-4" d="M48.82,37.53a.12.12,0,0,1-.12.13.13.13,0,0,1-.13-.13.12.12,0,0,1,.13-.12.12.12,0,0,1,.12.12"/><path class="cls-4" d="M49.15,38.67a.13.13,0,1,1-.13-.13.13.13,0,0,1,.13.13"/><path class="cls-4" d="M45.4,40.29a.2.2,0,0,1-.19.19.19.19,0,0,1-.19-.19.19.19,0,0,1,.19-.2.2.2,0,0,1,.19.2"/><path class="cls-4" d="M45.21,35.68a.2.2,0,0,1-.19.19.2.2,0,0,1-.2-.19.19.19,0,0,1,.2-.19.19.19,0,0,1,.19.19"/><path class="cls-4" d="M46.41,34.24a.19.19,0,0,1-.19.19.19.19,0,1,1,0-.38.19.19,0,0,1,.19.19"/><path class="cls-4" d="M45,32.9a.2.2,0,0,1-.2.19.19.19,0,0,1-.18-.19.19.19,0,0,1,.18-.2.2.2,0,0,1,.2.2"/><path class="cls-4" d="M43.57,33.86a.19.19,0,0,1-.19.19.2.2,0,0,1-.19-.19.2.2,0,0,1,.19-.2.19.19,0,0,1,.19.2"/><path class="cls-4" d="M44.27,34.53a.12.12,0,0,1-.12.12.13.13,0,0,1-.12-.12.12.12,0,0,1,.12-.12.12.12,0,0,1,.12.12"/><path class="cls-4" d="M48.66,29.35a.19.19,0,0,1-.38,0,.19.19,0,1,1,.38,0"/><path class="cls-4" d="M50.15,23.78A.19.19,0,0,1,50,24a.19.19,0,1,1,0-.38.19.19,0,0,1,.19.19"/><path class="cls-4" d="M40.36,30.45a.19.19,0,1,1-.19-.19.18.18,0,0,1,.19.19"/><path class="cls-4" d="M38.73,37.5a.19.19,0,0,1-.19.19.18.18,0,0,1-.19-.19.19.19,0,0,1,.19-.19.2.2,0,0,1,.19.19"/><path class="cls-4" d="M36,36.45a.14.14,0,0,1-.28,0,.14.14,0,1,1,.28,0"/><path class="cls-4" d="M36.14,35.25a.14.14,0,0,1-.14.14.14.14,0,0,1-.15-.14A.15.15,0,0,1,36,35.1a.15.15,0,0,1,.14.15"/><path class="cls-4" d="M35.38,34.22a.13.13,0,0,1-.13.13.13.13,0,0,1-.13-.13.13.13,0,0,1,.13-.14.13.13,0,0,1,.13.14"/><path class="cls-4" d="M33.83,34.38a.19.19,0,0,1-.19.2.2.2,0,0,1-.19-.2.2.2,0,0,1,.19-.19.19.19,0,0,1,.19.19"/><path class="cls-4" d="M32.34,35.08a.11.11,0,1,1-.11-.11.11.11,0,0,1,.11.11"/><path class="cls-4" d="M32.49,27.19a.2.2,0,0,1-.19.19.19.19,0,0,1-.19-.19.19.19,0,0,1,.19-.2.2.2,0,0,1,.19.2"/></g></g></svg>