<svg xmlns="http://www.w3.org/2000/svg" viewBox="0 0 101 60"><defs><style>.cls-1{fill:#ff9a15;}.cls-2{fill:#37aa41;}.cls-3{fill:#fff;}.cls-4{fill:#2d3a8e;}</style></defs><title>india</title><g id="Layer_2" data-name="Layer 2"><g id="Layer_1-2" data-name="Layer 1"><rect class="cls-1" width="100.95" height="60"/><rect class="cls-2" y="29" width="100.95" height="31"/><rect class="cls-3" y="19.73" width="101" height="20.19"/><path class="cls-4" d="M53.79,30.52a1.52,1.52,0,0,1-.06.2L59,33.18l-5.44-2-.05,0a.87.87,0,0,1-.07.17l4.69,3.36-5-2.93L53.1,32,57,36.21l-4.26-3.88-.08.09,3.05,4.89-3.47-4.58-.18.1,2,5.42-2.45-5.2-.15,0h0l.94,5.77L51,33.27l0-.06a.51.51,0,0,1-.2,0l-.26,5.83-.25-5.76v-.06a.24.24,0,0,1-.12,0l-1.33,5.68.81-5.71v0l-.21,0-2.46,5.28,2-5.43v0l-.14-.06-3.4,4.72,2.94-5v0c-.06,0-.11-.08-.16-.11l-4.28,3.91,3.89-4.25v0a.87.87,0,0,1-.08-.1l-4.93,3.07,4.61-3.48a1.62,1.62,0,0,1-.1-.18l-5.44,2L47.05,31a.09.09,0,0,1,0-.07l-5.71.93,5.57-1.42a.89.89,0,0,1,0-.22l-5.76-.25,5.73-.27a.81.81,0,0,1,0-.15l-5.61-1.29,5.67.78A.86.86,0,0,1,47,28.8l-5.22-2.42,5.38,1.94.06-.12-4.71-3.38,5,2.94a2.2,2.2,0,0,1,.14-.18L43.66,23.3l4.25,3.89a1.14,1.14,0,0,1,.11-.11L45,22.18l3.47,4.6a1,1,0,0,1,.2-.11l-2-5.44,2.45,5.21.18-.06-.93-5.66,1.43,5.54.22,0,.26-5.76.26,5.75h.15L52,20.63l-.8,5.68.22.06,2.42-5.22-1.95,5.4.12.06,3.4-4.73-2.94,5,0,0a1,1,0,0,0,.18.13l4.3-3.94L53,27.33l0,0a.43.43,0,0,1,.1.09l5-3.08-4.61,3.47,0,0,.11.18h0l5.49-2-5.23,2.46-.06,0s0,.09.05.13l5.74-.94-5.6,1.43h0a.83.83,0,0,1,0,.22l5.82.26-5.76.25h0a.56.56,0,0,1,0,.13l5.69,1.32-5.73-.8Z"/><path class="cls-4" d="M50.39,39.16a9.41,9.41,0,1,1,9.4-9.4,9.42,9.42,0,0,1-9.4,9.4m0-18.22a8.82,8.82,0,1,0,8.81,8.82,8.82,8.82,0,0,0-8.81-8.82"/></g></g></svg>