<svg xmlns="http://www.w3.org/2000/svg" viewBox="0 0 101 60.32"><defs><style>.cls-1{fill:#848383;}.cls-2{fill:none;stroke:#000;stroke-miterlimit:10;stroke-width:0.1px;}.cls-3{fill:#fff;}.cls-4{fill:#060;}.cls-5{fill:#b00;}</style></defs><title>kenya</title><g id="Layer_2" data-name="Layer 2"><g id="Layer_1-2" data-name="Layer 1"><rect class="cls-1" x="0.23" y="0.16" width="100.54" height="60"/><path d="M39.89,47.79l.65.37,17.33-30c1-.27,1.57-1.23,2.13-2.2a21.4,21.4,0,0,0,2.5-6.55,21.51,21.51,0,0,0-4.43,5.44,4,4,0,0,0-.84,2.94Z"/><path class="cls-2" d="M39.89,47.79l.65.37,17.33-30c1-.27,1.57-1.23,2.13-2.2a21.4,21.4,0,0,0,2.5-6.55,21.51,21.51,0,0,0-4.43,5.44,4,4,0,0,0-.84,2.94Z"/><path d="M61.11,47.79l-.65.37-17.33-30c-1-.27-1.57-1.23-2.13-2.2a21.4,21.4,0,0,1-2.5-6.55,21.51,21.51,0,0,1,4.43,5.44,4,4,0,0,1,.84,2.94Z"/><path class="cls-2" d="M61.11,47.79l-.65.37-17.33-30c-1-.27-1.57-1.23-2.13-2.2a21.4,21.4,0,0,1-2.5-6.55,21.51,21.51,0,0,1,4.43,5.44,4,4,0,0,1,.84,2.94Z"/><rect class="cls-3" y="0.47" width="101" height="59.38"/><rect width="101" height="18.28"/><rect class="cls-4" y="42.04" width="101" height="18.29"/><path class="cls-3" d="M39.89,47.79l.65.37,17.33-30c1-.27,1.57-1.23,2.13-2.2a21.4,21.4,0,0,0,2.5-6.55,21.51,21.51,0,0,0-4.43,5.44,4,4,0,0,0-.84,2.94Z"/><path class="cls-3" d="M61.11,47.79l-.65.37-17.33-30c-1-.27-1.57-1.23-2.13-2.2a21.4,21.4,0,0,1-2.5-6.55,21.51,21.51,0,0,1,4.43,5.44,4,4,0,0,1,.84,2.94Z"/><path class="cls-5" d="M.23,21.25V39.07H43.45c1.11,3,4.82,8.91,7,8.91s5.94-5.94,7-8.91h43.22V21.25H57.55c-1.11-3-4.82-8.9-7-8.9s-5.94,5.94-7,8.9Z"/><path d="M57.55,39.07a25.61,25.61,0,0,0,1.86-8.91,25.61,25.61,0,0,0-1.86-8.91,25.59,25.59,0,0,0-1.85,8.91,25.59,25.59,0,0,0,1.85,8.91"/><path d="M43.45,39.07a25.61,25.61,0,0,1-1.86-8.91,25.61,25.61,0,0,1,1.86-8.91,25.59,25.59,0,0,1,1.85,8.91,25.59,25.59,0,0,1-1.85,8.91"/><path class="cls-3" d="M50.5,27.93c.82,0,1.48,1,1.48,2.23s-.66,2.23-1.48,2.23S49,31.39,49,30.16s.66-2.23,1.48-2.23"/><path class="cls-3" d="M50.87,32.33a18.79,18.79,0,0,1,1.49,7.8,18.77,18.77,0,0,1-1.49,7.79Z"/><path class="cls-3" d="M50.13,28a18.77,18.77,0,0,1-1.49-7.79,18.79,18.79,0,0,1,1.49-7.8Z"/><path class="cls-3" d="M50.13,32.33a18.79,18.79,0,0,0-1.49,7.8,18.77,18.77,0,0,0,1.49,7.79Z"/><path class="cls-3" d="M50.87,28a18.77,18.77,0,0,0,1.49-7.79,18.79,18.79,0,0,0-1.49-7.8Z"/></g></g></svg>