<svg xmlns="http://www.w3.org/2000/svg" viewBox="0 0 101.16 60"><defs><style>.cls-1{fill:#848383;}.cls-2{fill:#cc0001;}.cls-3{fill:#fff;}.cls-4{fill:#010066;}.cls-5{fill:#fc0;}</style></defs><title>malaysia</title><g id="Layer_2" data-name="Layer 2"><g id="Layer_1-2" data-name="Layer 1"><rect class="cls-1" x="0.62" width="100.54" height="60"/><rect class="cls-2" width="100.96" height="60"/><rect class="cls-3" y="55.72" width="100.96" height="4.29"/><rect class="cls-3" y="47.14" width="100.96" height="4.29"/><rect class="cls-3" y="38.57" width="100.96" height="4.29"/><rect class="cls-3" y="30" width="100.96" height="4.29"/><rect class="cls-3" y="21.43" width="100.96" height="4.29"/><rect class="cls-3" y="12.86" width="100.96" height="4.29"/><rect class="cls-3" y="4.29" width="100.96" height="4.29"/><rect class="cls-4" x="0.42" width="50.27" height="33.59"/><path class="cls-5" d="M21.1,8.46A10.77,10.77,0,1,0,27,28.28,9.55,9.55,0,1,1,23.82,9.71a9.35,9.35,0,0,1,3.32.59,10.77,10.77,0,0,0-6-1.84"/><polygon class="cls-5" points="39.03 24.84 34.47 22.46 35.82 27.32 32.77 23.25 31.82 28.2 30.89 23.25 27.83 27.31 29.19 22.45 24.63 24.82 28.02 21.01 22.86 21.21 27.6 19.22 22.87 17.22 28.03 17.43 24.65 13.62 29.2 16 27.86 11.13 30.9 15.2 31.85 10.25 32.79 15.2 35.84 11.15 34.48 16 39.04 13.64 35.66 17.44 40.81 17.24 36.07 19.23 40.81 21.24 35.65 21.02 39.03 24.84"/></g></g></svg>