<svg xmlns="http://www.w3.org/2000/svg" viewBox="0 0 100.85 60"><defs><style>.cls-1{fill:#0038a8;}.cls-2{fill:#ce1126;}.cls-3{fill:#fff;}.cls-4{fill:#fcd116;}</style></defs><title>philippines</title><g id="Layer_2" data-name="Layer 2"><g id="Layer_1-2" data-name="Layer 1"><polygon class="cls-1" points="0 0 100.85 0 100.85 56.28 0.02 55.13 0 0"/><polygon class="cls-2" points="0 30 100.83 30 100.85 60 0 60 0 30"/><polyline class="cls-3" points="43.54 30 0 60 0 0"/><path class="cls-4" d="M15.65,25a5,5,0,1,1-5,5,5,5,0,0,1,5-5"/><polygon class="cls-4" points="5.04 30 5.69 30.65 15.65 30 5.69 29.35 5.04 30"/><polygon class="cls-4" points="6.16 31.25 6.69 31.78 15.65 30 6.16 31.25"/><polygon class="cls-4" points="6.16 28.75 6.69 28.22 15.65 30 6.16 28.75"/><polygon class="cls-4" points="8.15 22.5 8.15 23.42 15.65 30 9.07 22.5 8.15 22.5"/><polygon class="cls-4" points="8.06 24.17 8.06 24.93 15.65 30 8.06 24.17"/><polygon class="cls-4" points="9.82 22.41 10.58 22.41 15.65 30 9.82 22.41"/><polygon class="cls-4" points="15.65 19.39 15 20.04 15.65 30 16.3 20.04 15.65 19.39"/><polygon class="cls-4" points="14.4 20.51 13.87 21.04 15.65 30 14.4 20.51"/><polygon class="cls-4" points="16.9 20.51 17.43 21.04 15.65 30 16.9 20.51"/><polygon class="cls-4" points="23.15 22.5 22.23 22.5 15.65 30 23.15 23.42 23.15 22.5"/><polygon class="cls-4" points="21.48 22.41 20.73 22.41 15.65 30 21.48 22.41"/><polygon class="cls-4" points="23.25 24.17 23.25 24.93 15.65 30 23.25 24.17"/><polygon class="cls-4" points="26.26 30 25.61 29.35 15.65 30 25.61 30.65 26.26 30"/><polygon class="cls-4" points="25.14 28.75 24.61 28.22 15.65 30 25.14 28.75"/><polygon class="cls-4" points="25.14 31.25 24.61 31.78 15.65 30 25.14 31.25"/><polygon class="cls-4" points="23.15 37.5 23.15 36.58 15.65 30 22.23 37.5 23.15 37.5"/><polygon class="cls-4" points="23.25 35.83 23.25 35.08 15.65 30 23.25 35.83"/><polygon class="cls-4" points="21.48 37.59 20.73 37.59 15.65 30 21.48 37.59"/><polygon class="cls-4" points="15.65 40.61 16.3 39.96 15.65 30 15 39.96 15.65 40.61"/><polygon class="cls-4" points="16.9 39.49 17.43 38.96 15.65 30 16.9 39.49"/><polygon class="cls-4" points="14.4 39.49 13.87 38.96 15.65 30 14.4 39.49"/><polygon class="cls-4" points="8.15 37.5 9.07 37.5 15.65 30 8.15 36.58 8.15 37.5"/><polygon class="cls-4" points="9.82 37.59 10.58 37.59 15.65 30 9.82 37.59"/><polygon class="cls-4" points="8.06 35.83 8.06 35.08 15.65 30 8.06 35.83"/><polygon class="cls-4" points="1.19 12.22 3.18 12.47 3.63 14.42 4.48 12.61 6.47 12.78 5.02 11.41 5.79 9.57 4.04 10.53 2.53 9.23 2.9 11.19 1.19 12.22"/><polygon class="cls-4" points="1.19 47.78 2.9 48.81 2.53 50.77 4.04 49.47 5.79 50.43 5.02 48.59 6.47 47.22 4.48 47.39 3.63 45.58 3.18 47.53 1.19 47.78"/><polygon class="cls-4" points="33.46 28.36 34.6 30 33.46 31.64 35.37 31.06 36.58 32.65 36.62 30.66 38.51 30 36.62 29.34 36.58 27.34 35.37 28.94 33.46 28.36"/></g></g></svg>